SplineFontDB: 3.0
FontName: Ember
FullName: Ember
FamilyName: Ember
Weight: Regular
Copyright: Copyright (c) 2015-2016, Stig @ Cannot Into Space Fonts, All Rights Reserved.
Version: 0.127
ItalicAngle: 0
UnderlinePosition: -100
UnderlineWidth: 50
Ascent: 795
Descent: 205
InvalidEm: 0
sfntRevision: 0x00010000
LayerCount: 2
Layer: 0 0 "Back" 1
Layer: 1 0 "Fore" 0
XUID: [1021 1014 1531800021 23986]
StyleMap: 0x0000
FSType: 0
OS2Version: 4
OS2_WeightWidthSlopeOnly: 0
OS2_UseTypoMetrics: 1
CreationTime: 1450889747
ModificationTime: 1467516922
PfmFamily: 33
TTFWeight: 400
TTFWidth: 5
LineGap: 90
VLineGap: 0
Panose: 2 0 11 3 0 0 0 0 0 0
OS2TypoAscent: 795
OS2TypoAOffset: 0
OS2TypoDescent: -205
OS2TypoDOffset: 0
OS2TypoLinegap: 90
OS2WinAscent: 916
OS2WinAOffset: 0
OS2WinDescent: 190
OS2WinDOffset: 0
HheadAscent: 916
HheadAOffset: 0
HheadDescent: -190
HheadDOffset: 0
OS2SubXSize: 650
OS2SubYSize: 700
OS2SubXOff: 0
OS2SubYOff: 140
OS2SupXSize: 650
OS2SupYSize: 700
OS2SupXOff: 0
OS2SupYOff: 480
OS2StrikeYSize: 49
OS2StrikeYPos: 258
OS2CapHeight: 820
OS2XHeight: 621
OS2Vendor: 'CiSf'
OS2CodePages: 00000001.00000000
OS2UnicodeRanges: 00000027.00000000.00000000.00000000
MarkAttachClasses: 1
DEI: 91125
LangName: 1033 "" "" "" "Ember v0.127" "" "" "" "" "Cannot Into Space Fonts" "Stig" "" "" "" "SIL Open Font License (OFL) version 1.1" "http://scripts.sil.org/OFL"
Encoding: UnicodeBmp
UnicodeInterp: none
NameList: AGL For New Fonts
DisplaySize: -72
AntiAlias: 1
FitToEm: 0
WinInfo: 80 16 4
BeginPrivate: 8
BlueValues 23 [-1 64 608 648 756 820]
OtherBlues 11 [-166 -144]
BlueScale 9 0.0152308
BlueShift 1 0
StdHW 5 [142]
StdVW 5 [126]
StemSnapH 19 [60 98 109 126 142]
StemSnapV 13 [107 126 143]
EndPrivate
TeXData: 1 0 0 156237 78118 52079 637534 1048576 52079 783286 444596 497025 792723 393216 433062 380633 303038 157286 324010 404750 52429 2506097 1059062 262144
BeginChars: 65537 113

StartChar: exclam
Encoding: 33 33 2
Width: 221
Flags: W
HStem: 82 68<57 165>
VStem: 55 113<82 150>
LayerCount: 2
Fore
SplineSet
48 757 m 0
 53 757 183 753 183 749 c 0
 183 744 163 173 158 173 c 0
 154 173 55 177 55 182 c 0
 55 186 44 757 48 757 c 0
55 150 m 1
 168 150 l 1
 165 82 l 1
 57 82 l 1
 55 150 l 1
EndSplineSet
EndChar

StartChar: quotedbl
Encoding: 34 34 3
Width: 427
Flags: W
HStem: 529 295<67 181 246 361>
LayerCount: 2
Fore
SplineSet
42 824 m 1
 181 824 l 1
 202 529 l 1
 67 529 l 1
 42 824 l 1
221 824 m 5
 361 824 l 5
 381 529 l 5
 246 529 l 5
 221 824 l 5
EndSplineSet
EndChar

StartChar: numbersign
Encoding: 35 35 4
Width: 573
Flags: W
HStem: 49 21G<75 185.468 293 414.158> 188 126<19 92 431 541> 495 126<19 128 467 540> 753 20G<158.632 271 373.632 484>
LayerCount: 2
Fore
SplineSet
19 188 m 1
 19 314 l 1
 107 314 l 1
 128 495 l 1
 19 495 l 1
 19 621 l 1
 143 621 l 1
 161 773 l 1
 271 773 l 1
 253 621 l 1
 358 621 l 1
 376 773 l 1
 484 773 l 1
 467 621 l 1
 540 621 l 1
 540 495 l 1
 452 495 l 1
 431 314 l 1
 541 314 l 1
 541 188 l 1
 427 188 l 1
 412 49 l 1
 293 49 l 1
 306 188 l 1
 202 188 l 1
 183 34 l 1
 75 34 l 1
 92 188 l 1
 19 188 l 1
196 280 m 1
 306 302 l 1
 339 483 l 1
 229 461 l 1
 196 280 l 1
EndSplineSet
EndChar

StartChar: dollar
Encoding: 36 36 5
Width: 606
Flags: W
VStem: 250 137<813.655 883.966> 443 126<156.5 344> 459 90<514.521 566.048>
LayerCount: 2
Fore
SplineSet
11 303 m 1xc0
 22 296 169 290 169 302 c 1
 169 218 186 166 279 185 c 1
 372 196 430 244 443 298 c 1xc0
 443 390 48 399 47 615 c 0
 47 712 148 794 250 819 c 1
 250 883 l 1
 256 882 380 920 387 916 c 1
 379 796 l 1
 472 796 548 735 549 518 c 0
 549 510 459 507 459 484 c 1xa0
 459 585 408 615 311 612 c 0
 230 612 186 565 185 511 c 0
 185 422 569 423 569 206 c 0
 569 107 470 26 355 4 c 0
 347 4 337 -54 327 -47 c 1
 327 -47 220 -95 210 -88 c 1
 210 -88 220 7 210 14 c 1
 98 31 11 118 11 303 c 1xc0
EndSplineSet
EndChar

StartChar: percent
Encoding: 37 37 6
Width: 398
Flags: W
HStem: 0 21G<-82 72.1583> 28 117<322.514 455.788> 224 118<322.927 455.986> 480 118<-57.375 76.6138> 677 117<-56.9146 76.1219> 801 20G<324.842 479>
VStem: -154 89<609.149 664.971> 84 88<609.149 664.84> 227 88<156.296 212.305> 463 89<156.296 212.175>
LayerCount: 2
Fore
SplineSet
-154 637 m 0
 -154 719 -77 794 10 794 c 0
 96 794 172 718 172 637 c 0
 172 554 97 480 10 480 c 0
 -77 480 -154 554 -154 637 c 0
-82 0 m 1
 335 821 l 1
 479 821 l 1
 62 0 l 1
 -82 0 l 1
-65 637 m 0
 -65 612 -34 598 9 598 c 0
 52 598 84 612 84 637 c 0
 84 662 53 677 10 677 c 0
 -33 677 -65 662 -65 637 c 0
227 184 m 0
 227 267 304 342 390 342 c 0
 476 342 552 266 552 184 c 0
 552 102 476 28 389 28 c 0
 303 28 227 102 227 184 c 0
315 184 m 0
 315 159 346 145 389 145 c 0
 432 145 463 159 463 184 c 0
 463 210 432 224 389 224 c 0
 346 224 315 210 315 184 c 0
EndSplineSet
EndChar

StartChar: ampersand
Encoding: 38 38 7
Width: 684
Flags: W
VStem: 312 91<588.765 635.342>
LayerCount: 2
Fore
SplineSet
-1 404 m 0
 25 454 71 496 115 532 c 1
 92 580 77 607 77 636 c 2
 77 637 l 2
 80 752 180 796 238 801 c 0
 297 807 403 739 403 636 c 0
 404 583 348 528 286 490 c 1
 319 450 360 392 403 347 c 1
 440 406 479 446 532 451 c 1
 532 456 597 449 597 453 c 2
 597 327 l 2
 597 332 536 321 536 325 c 0
 527 330 517 288 495 249 c 1
 522 226 549 192 575 173 c 1
 575 178 701 58 701 62 c 0
 701 67 510 58 510 62 c 0
 510 67 492 73 492 78 c 0
 470 102 444 127 415 151 c 1
 368 106 306 67 223 62 c 0
 6 57 -60 274 -1 404 c 0
107 334 m 0
 68 248 88 156 214 149 c 0
 249 144 283 165 315 196 c 1
 268 256 224 323 182 382 c 1
 154 361 116 354 107 334 c 0
218 573 m 1
 275 571 305 593 312 603 c 1
 312 637 299 640 263 631 c 1
 236 630 245 608 244 572 c 0
 244 563 206 594 218 573 c 1
EndSplineSet
EndChar

StartChar: quotesingle
Encoding: 39 39 8
Width: 271
Flags: W
HStem: 529 295<79 194>
VStem: 54 160
LayerCount: 2
Fore
SplineSet
54 824 m 1
 194 824 l 1
 214 529 l 1
 79 529 l 1
 54 824 l 1
EndSplineSet
EndChar

StartChar: parenleft
Encoding: 40 40 9
Width: 304
Flags: W
VStem: -28 140<297.706 491.988>
LayerCount: 2
Fore
SplineSet
-28 392 m 0
 -27 515 55 597 144 687 c 1
 152 701 l 1
 152 701 304 722 304 757 c 0
 304 792 228 720 228 720 c 1
 146 638 114 569 112 444 c 0
 111 318 152 220 222 124 c 1
 222 90 336 62 336 26 c 0
 336 -8 154 62 153 26 c 0
 154 -8 136 77 135 41 c 1
 53 79 -28 270 -28 392 c 0
EndSplineSet
EndChar

StartChar: parenright
Encoding: 41 41 10
Width: 304
Flags: W
HStem: 790 20G<133 163>
VStem: 198 144<251.196 445.882>
LayerCount: 2
Fore
SplineSet
-25 -30 m 1
 71 65 l 2
 136 130 199 225 198 336 c 0
 198 446 139 531 59 612 c 1
 59 612 -23 723 -22 757 c 0
 -23 793 133 810 133 810 c 1
 163 796 l 1
 254 705 343 566 342 392 c 0
 342 215 238 62 164 -11 c 2
 145 -30 l 1
 -25 -30 l 1
EndSplineSet
EndChar

StartChar: asterisk
Encoding: 42 42 11
Width: 449
Flags: W
HStem: 499 85<320.667 400> 524 83<53 140>
LayerCount: 2
Fore
SplineSet
53 524 m 1x40
 53 607 l 1
 149 607 l 1x40
 85 722 l 1
 193 722 l 1
 240 661 l 1
 279 718 l 1
 375 714 l 1
 318 589 l 1
 407 584 l 1
 400 499 l 1x80
 298 490 l 1
 355 379 l 1
 253 389 l 1
 206 458 l 1
 173 401 l 1
 76 397 l 1
 140 524 l 1
 53 524 l 1x40
EndSplineSet
EndChar

StartChar: plus
Encoding: 43 43 12
Width: 488
Flags: W
LayerCount: 2
Fore
SplineSet
3 299 m 1
 21 425 l 1
 174 443 l 1
 189 597 l 1
 315 579 l 1
 333 425 l 1
 486 410 l 1
 468 284 l 1
 315 266 l 1
 300 113 l 1
 174 131 l 1
 156 284 l 1
 3 299 l 1
EndSplineSet
EndChar

StartChar: comma
Encoding: 44 44 13
Width: 178
Flags: W
HStem: -99 234
VStem: 90 114<40.3945 115.834>
LayerCount: 2
Fore
SplineSet
-30 -99 m 1
 -43 -99 92 -74 80 -86 c 1
 130 -67 194 32 204 113 c 1
 210 118 90 126 90 135 c 1
 102 60 98 -52 -30 -99 c 1
EndSplineSet
EndChar

StartChar: hyphen
Encoding: 45 45 14
Width: 399
Flags: W
HStem: 327 126<238.5 364> 343 126<36 161.5>
LayerCount: 2
Fore
SplineSet
4 343 m 1x40
 36 469 l 1x40
 396 453 l 1
 364 327 l 1x80
 4 343 l 1x40
EndSplineSet
EndChar

StartChar: period
Encoding: 46 46 15
Width: 214
Flags: W
HStem: 0 144<41.5957 173.406>
VStem: 36 143<5.63867 138.404>
LayerCount: 2
Fore
SplineSet
36 136 m 0
 36 140 166 144 171 144 c 0
 175 144 179 14 179 9 c 0
 179 4 49 0 45 0 c 0
 40 0 36 131 36 136 c 0
EndSplineSet
EndChar

StartChar: slash
Encoding: 47 47 16
Width: 365
Flags: W
LayerCount: 2
Fore
SplineSet
-16 -13 m 1
 207 726 l 1
 381 824 l 1
 157 85 l 1
 -16 -13 l 1
EndSplineSet
EndChar

StartChar: zero
Encoding: 48 48 17
Width: 576
Flags: W
HStem: 68 142<221.96 357.378> 647 143<219.595 357.047>
VStem: 21 107<317.345 539.511> 447 107<313.748 536.512>
LayerCount: 2
Fore
SplineSet
21 429 m 0
 21 608 140 789 290 790 c 0
 438 790 555 607 554 429 c 0
 554 250 440 67 290 68 c 0
 139 68 21 249 21 429 c 0
128 429 m 0
 128 295 203 209 290 210 c 0
 375 210 448 294 447 429 c 0
 447 560 375 646 290 647 c 0
 202 647 128 560 128 429 c 0
EndSplineSet
EndChar

StartChar: one
Encoding: 49 49 18
Width: 304
Flags: W
HStem: 0 21G<225.857 283.491>
VStem: 143 159<488.842 634> 143 140<49 285.158>
LayerCount: 2
Fore
SplineSet
26 650 m 1xc0
 199 856 l 1
 302 774 l 1xc0
 283 0 l 1
 143 49 l 1xa0
 143 634 l 1
 26 650 l 1xc0
EndSplineSet
EndChar

StartChar: two
Encoding: 50 50 19
Width: 570
Flags: W
HStem: 0 21G<44.3651 569> 704 131<200.743 342.318>
VStem: 0 189<162 271>
LayerCount: 2
Fore
SplineSet
0 63 m 1
 0 304 379 403 378 555 c 0
 378 615 377 688 295 704 c 1
 214 707 168 678 157 618 c 1
 148 618 17 602 17 602 c 1
 17 721 126 835 253 835 c 0
 381 835 514 751 535 634 c 1
 564 385 189 271 189 181 c 0
 189 162 538 142 538 142 c 1
 569 16 l 1
 65 0 l 1
 0 63 l 1
EndSplineSet
EndChar

StartChar: three
Encoding: 51 51 20
Width: 569
Flags: W
HStem: 59 21G<166 336.5> 676 114<82.1969 266.375>
LayerCount: 2
Fore
SplineSet
-10 330 m 1
 -10 330 122 349 145 349 c 1
 161 262 207 200 303 186 c 1
 389 179 436 234 431 308 c 1
 438 383 391 426 307 417 c 1
 307 401 180 390 163 390 c 0
 137 390 294 668 294 668 c 1
 73 676 l 1
 73 676 74 790 87 790 c 0
 104 790 575 812 546 812 c 1
 384 567 l 1
 433 567 549 463 537 333 c 0
 527 184 409 59 264 59 c 0
 68 59 -10 175 -10 330 c 1
EndSplineSet
EndChar

StartChar: four
Encoding: 52 52 21
Width: 575
Flags: W
HStem: 34 21G<374 486.189> 197 125<254 374> 219 103<500 570> 789 20G<351.674 500>
VStem: 374 122<101.273 197> 374 111<34 151.727> 391 109<412.9 625> 401 99<322 534.1>
LayerCount: 2
Fore
SplineSet
17 198 m 1xd8
 363 809 l 1
 500 809 l 1
 500 322 l 1xb1
 570 322 l 1
 570 219 l 1
 496 219 l 1xb8
 485 34 l 1
 374 34 l 1xb4
 374 197 l 1
 17 198 l 1xd8
254 322 m 1xd2
 401 322 l 1xb1
 391 625 l 1
 254 322 l 1xd2
EndSplineSet
EndChar

StartChar: five
Encoding: 53 53 22
Width: 586
Flags: W
HStem: 24 140<212.859 321.186> 523 74<236.086 371.997>
VStem: 32 118<234.37 299> 409 128<274.308 432.188>
LayerCount: 2
Fore
SplineSet
32 299 m 1
 49 299 180 325 150 325 c 1
 146 252 198 164 267 164 c 0
 347 165 410 274 409 385 c 0
 409 494 397 523 316 523 c 0
 224 523 199 464 189 433 c 1
 32 433 l 1
 140 829 l 1
 159 829 537 823 537 800 c 0
 537 785 524 647 507 647 c 0
 489 647 214 657 211 665 c 1
 201 579 l 1
 224 592 254 597 276 597 c 0
 417 592 538 479 537 326 c 0
 539 166 416 24 276 24 c 1
 152 18 30 140 32 299 c 1
EndSplineSet
EndChar

StartChar: six
Encoding: 54 54 23
Width: 572
Flags: W
HStem: 39 169<229.65 379.201> 245 39<27.2141 41.037> 466 110<260.145 356.651>
VStem: 412 127<238.167 408.516>
LayerCount: 2
Fore
SplineSet
21 294 m 0
 21 287 26 284 34 284 c 1
 41 303 49 324 53 349 c 0
 78 480 171 666 233 783 c 1
 226 783 258 814 251 814 c 2
 396 814 l 2
 390 814 348 720 341 720 c 1
 308 676 293 624 259 574 c 1
 261 575 284 576 286 576 c 0
 412 576 545 447 539 308 c 0
 532 170 425 40 287 39 c 0
 168 39 79 134 43 245 c 1
 35 245 l 2
 28 245 21 301 21 294 c 0
161 352 m 1
 161 262 231 209 309 208 c 0
 385 208 411 235 412 323 c 0
 412 412 364 467 291 466 c 0
 248 466 222 428 203 361 c 1
 196 317 149 358 161 352 c 1
EndSplineSet
EndChar

StartChar: seven
Encoding: 55 55 24
Width: 537
Flags: W
LayerCount: 2
Fore
SplineSet
34 731 m 1
 34 852 l 1
 15 826 534 801 526 775 c 1
 445 679 l 1
 319 479 242 327 218 117 c 1
 173 66 l 1
 44 82 l 1
 59 157 l 1
 106 403 200 600 281 731 c 1
 34 731 l 1
EndSplineSet
EndChar

StartChar: eight
Encoding: 56 56 25
Width: 570
Flags: W
HStem: 699 111<214.083 361.248>
VStem: 22 514<155 339> 70 125<585.351 679.178>
LayerCount: 2
Fore
SplineSet
22 273 m 0xc0
 22 339 64 404 126 450 c 1
 92 487 70 540 70 597 c 0xa0
 70 710 179 809 285 810 c 0
 392 810 516 712 509 607 c 0
 504 557 490 508 445 471 c 1
 494 424 543 354 536 283 c 0
 530 155 422 35 284 36 c 0
 148 36 22 151 22 273 c 0xc0
159 246 m 0
 143 170 175 133 254 148 c 0
 333 160 387 213 394 292 c 1
 388 368 396 441 326 434 c 1
 321 425 312 419 302 415 c 1
 306 412 308 404 304 393 c 1
 233 374 174 319 159 246 c 0
195 632 m 0
 195 594 221 570 271 567 c 1
 270 567 272 564 276 558 c 0
 281 553 290 548 300 548 c 0
 362 552 379 579 384 623 c 0
 389 671 347 698 286 699 c 0
 224 699 195 675 195 632 c 0
EndSplineSet
EndChar

StartChar: nine
Encoding: 57 57 26
Width: 572
Flags: W
HStem: 43 21G<176 317.5> 282 110<210.195 311.855> 573 39<530.215 544.447> 649 169<192.799 343.845>
VStem: 33 127<448.641 619.187>
LayerCount: 2
Fore
SplineSet
33 549 m 0
 40 688 147 817 285 818 c 0
 404 818 493 724 529 612 c 1
 537 612 l 2
 544 612 550 556 550 564 c 0
 550 571 545 573 537 573 c 1
 530 554 523 533 519 509 c 0
 494 377 401 192 339 75 c 1
 346 75 314 43 321 43 c 2
 176 43 l 2
 182 43 224 138 231 138 c 1
 264 182 279 233 313 284 c 1
 311 283 288 282 286 282 c 0
 160 282 27 410 33 549 c 0
160 534 m 0
 160 446 207 391 281 392 c 0
 324 392 350 429 369 496 c 1
 376 541 423 499 411 506 c 1
 411 596 341 648 263 649 c 0
 187 649 161 622 160 534 c 0
EndSplineSet
EndChar

StartChar: colon
Encoding: 58 58 27
Width: 196
Flags: W
HStem: 0 144<32.5938 164.404> 301 144<32.5938 164.404>
VStem: 27 143<5.63867 138.404 306.637 439.363>
LayerCount: 2
Fore
SplineSet
27 136 m 0
 27 140 157 144 161 144 c 0
 166 144 170 14 170 9 c 0
 170 4 40 0 35 0 c 0
 31 0 27 131 27 136 c 0
27 436 m 0
 27 441 157 445 161 445 c 0
 166 445 170 314 170 310 c 0
 170 305 40 301 35 301 c 0
 31 301 27 432 27 436 c 0
EndSplineSet
EndChar

StartChar: semicolon
Encoding: 59 59 28
Width: 178
Flags: W
HStem: 257 157<84.643 211.273>
VStem: 78 139<275.676 395.86>
LayerCount: 2
Fore
SplineSet
-30 -68 m 0
 -35 -68 79 -32 79 -37 c 1
 130 -23 194 76 208 157 c 1
 208 157 90 161 90 166 c 1
 102 90 98 -21 -30 -68 c 0
74 387 m 1
 87 399 196 414 208 414 c 0
 213 414 217 284 217 279 c 0
 217 270 84 262 78 257 c 1
 74 387 l 1
EndSplineSet
EndChar

StartChar: less
Encoding: 60 60 29
Width: 564
Flags: W
HStem: 596 20G<459.453 516.821>
LayerCount: 2
Fore
SplineSet
3 404 m 1
 507 616 l 1
 562 504 l 1
 288 380 l 1
 527 254 l 1
 562 104 l 1
 58 295 l 1
 3 404 l 1
EndSplineSet
EndChar

StartChar: equal
Encoding: 61 61 30
Width: 497
Flags: W
HStem: 216 95<287.6 412> 232 94<86 199.375> 408 94<287.6 412> 423 94<86 210.4>
LayerCount: 2
Fore
SplineSet
34 232 m 1x40
 86 326 l 1x40
 464 311 l 1
 412 216 l 1x80
 34 232 l 1x40
34 423 m 1x10
 86 517 l 1x10
 464 502 l 1
 412 408 l 1x20
 34 423 l 1x10
EndSplineSet
EndChar

StartChar: greater
Encoding: 62 62 31
Width: 564
Flags: W
LayerCount: 2
Fore
SplineSet
4 132 m 1
 4 282 l 1
 332 372 l 1
 58 470 l 1
 4 584 l 1
 508 394 l 1
 543 323 l 1
 4 132 l 1
EndSplineSet
EndChar

StartChar: question
Encoding: 63 63 32
Width: 491
Flags: W
HStem: 0 145<178.596 310.406> 676 88<179.528 283.954>
VStem: 36 129<522.949 645.366> 173 143<5.68164 139.361> 322 134<547.471 639.351>
LayerCount: 2
Fore
SplineSet
36 511 m 1
 38 710 133 765 236 764 c 1
 337 778 453 692 456 570 c 0
 461 401 273 426 316 233 c 1
 316 238 186 243 182 243 c 0
 144 479 323 524 322 579 c 0
 322 644 276 675 216 676 c 0
 158 677 175 605 165 524 c 0
 162 521 36 520 36 511 c 1
173 137 m 0
 173 141 303 145 308 145 c 0
 312 145 316 14 316 9 c 0
 316 4 186 0 182 0 c 0
 177 0 173 132 173 137 c 0
EndSplineSet
EndChar

StartChar: at
Encoding: 64 64 33
Width: 857
Flags: W
HStem: 568 29<381.869 510.607>
VStem: 320 124<332.572 428.219>
LayerCount: 2
Fore
SplineSet
218 359 m 0
 219 501 309 597 412 597 c 0
 455 597 489 590 527 574 c 1
 527 590 464 604 481 604 c 0
 498 604 507 570 507 554 c 1
 487 561 464 568 438 568 c 0
 359 568 305 498 274 396 c 1
 240 304 296 226 361 228 c 1
 361 228 364 219 384 205 c 1
 403 145 470 106 541 115 c 1
 539 101 504 116 451 116 c 0
 323 115 218 217 218 359 c 0
320 358 m 0
 338 446 364 474 402 479 c 0
 429 484 450 470 449 424 c 0
 452 415 440 408 444 400 c 1
 428 329 406 285 367 279 c 0
 325 273 306 291 320 358 c 0
EndSplineSet
EndChar

StartChar: A
Encoding: 65 65 34
Width: 750
Flags: W
HStem: 17 21G<579.037 756> 152 159<260 491>
LayerCount: 2
Fore
SplineSet
17 82 m 1
 377 738 l 1
 438 738 l 1
 756 17 l 1
 590 17 l 1
 516 152 l 1
 172 152 l 1
 139 82 l 1
 17 82 l 1
260 311 m 1
 491 311 l 1
 376 577 l 1
 260 311 l 1
EndSplineSet
EndChar

StartChar: B
Encoding: 66 66 35
Width: 678
Flags: W
HStem: 68 57<188 404.478> 348 98<287.15 430.024> 647 137<179 366.867>
VStem: 50 167<137.458 334.121> 51 125<466 647> 462 146<200.315 348.28> 469 141<513.477 596.804>
LayerCount: 2
Fore
SplineSet
50 68 m 1xf4
 51 784 l 1
 350 785 l 2
 467 785 610 683 610 577 c 0xea
 610 533 575 484 526 446 c 1
 576 405 609 345 608 283 c 0
 608 172 498 75 383 68 c 1
 50 68 l 1xf4
176 466 m 1
 347 446 l 1
 416 446 470 481 469 534 c 1
 477 588 435 626 367 636 c 1
 367 646 183 647 179 647 c 1
 176 466 l 1
188 125 m 2
 364 126 l 2
 428 126 463 240 462 297 c 0
 462 356 482 351 413 348 c 1
 419 344 217 338 217 329 c 0xf4
 217 314 204 125 188 125 c 2
EndSplineSet
EndChar

StartChar: C
Encoding: 67 67 36
Width: 685
Flags: W
HStem: 80 44<292.656 418.311> 633 171<306.279 455.25>
VStem: 53 130<309.472 485.331> 549 101<520.229 571.411>
LayerCount: 2
Fore
SplineSet
53 430 m 0
 53 623 198 804 362 804 c 0
 435 804 638 736 650 525 c 0
 650 514 530 500 549 500 c 1
 553 605 441 633 379 633 c 0
 262 632 183 495 183 372 c 0
 183 248 260 125 359 124 c 0
 398 124 496 168 502 296 c 0
 502 320 651 339 674 339 c 1
 680 138 475 80 383 80 c 0
 209 80 53 238 53 430 c 0
EndSplineSet
EndChar

StartChar: D
Encoding: 68 68 37
Width: 720
Flags: W
HStem: 17 191<157 427.236> 612 142<157 357.6>
VStem: 565 79<317.003 502.827>
LayerCount: 2
Fore
SplineSet
50 17 m 2
 70 17 50 754 50 754 c 1
 70 754 374 765 374 779 c 1
 534 794 664 625 644 435 c 1
 644 245 508 17 347 17 c 2
 50 17 l 2
157 208 m 1
 352 208 l 2
 473 208 566 286 565 410 c 0
 565 534 473 611 352 612 c 1
 157 612 l 1
 157 208 l 1
EndSplineSet
EndChar

StartChar: E
Encoding: 69 69 38
Width: 648
Flags: W
HStem: 0 142<176 619> 339 143<176 506> 678 142<176 619>
VStem: 31 145<142 339 482 678>
LayerCount: 2
Fore
SplineSet
31 0 m 1
 31 820 l 1
 619 820 l 1
 619 678 l 1
 176 678 l 1
 176 482 l 1
 506 482 l 1
 506 339 l 1
 176 339 l 1
 176 142 l 1
 619 142 l 1
 619 0 l 1
 31 0 l 1
EndSplineSet
EndChar

StartChar: F
Encoding: 70 70 39
Width: 594
Flags: W
HStem: 0 21G<31 176> 339 143<176 464> 678 142<176 565>
VStem: 31 145<0 339 482 678>
LayerCount: 2
Fore
SplineSet
31 0 m 1
 31 820 l 1
 565 820 l 1
 565 678 l 1
 176 678 l 1
 176 482 l 1
 464 482 l 1
 464 339 l 1
 176 339 l 1
 176 0 l 1
 31 0 l 1
EndSplineSet
EndChar

StartChar: G
Encoding: 71 71 40
Width: 750
Flags: W
HStem: 70 59<297.919 500.181> 286 204<460.79 628.502>
VStem: 30 145<313.064 480.361> 328 412<320.518 448.397>
LayerCount: 2
Fore
SplineSet
30 415 m 0
 24 979 729 908 722 616 c 1
 710 616 616 595 616 595 c 1
 597 740 175 707 175 367 c 0
 175 226 273 128 391 129 c 0
 538 130 629 226 629 299 c 1
 622 292 380 286 368 286 c 0
 346 286 328 419 328 443 c 0
 328 466 716 490 740 490 c 1
 765 304 671 78 394 70 c 1
 223 71 30 226 30 415 c 0
EndSplineSet
EndChar

StartChar: H
Encoding: 72 72 41
Width: 679
Flags: W
HStem: 0 21G<49.4851 128.75 521.758 553.732> 800 20G<126.268 158.242 548.71 630.515>
VStem: 50 126<32 129.364> 504 126<691.636 789>
LayerCount: 2
Fore
SplineSet
31 738 m 1
 157 820 l 1
 176 514 l 1
 482 483 l 1
 504 789 l 1
 630 820 l 1
 649 82 l 1
 523 0 l 1
 504 306 l 1
 198 338 l 1
 176 32 l 1
 50 0 l 1
 31 738 l 1
EndSplineSet
EndChar

StartChar: I
Encoding: 73 73 42
Width: 236
Flags: W
HStem: 0 21G<141.268 172.515> 800 20G<64.4851 95.7317>
VStem: 46 126<82 271.895> 65 126<548.105 738>
LayerCount: 2
Fore
SplineSet
46 82 m 1xe0
 65 820 l 1
 191 738 l 1xd0
 172 0 l 1
 46 82 l 1xe0
EndSplineSet
EndChar

StartChar: J
Encoding: 74 74 43
Width: 539
Flags: W
HStem: 0 208<200.791 339.572> 800 20G<400.272 443.712>
VStem: 165 1<298 306> 401 126<627.684 761>
LayerCount: 2
Fore
SplineSet
17 232 m 1
 17 232 25 295 30 295 c 0
 35 295 165 298 165 306 c 2
 166 298 l 1
 167 242 203 208 274 208 c 0
 344 208 381 244 382 298 c 2
 401 820 l 1
 527 761 l 1
 527 745 518 213 501 213 c 1
 488 106 366 -1 245 0 c 0
 125 0 18 121 17 232 c 1
EndSplineSet
EndChar

StartChar: K
Encoding: 75 75 44
Width: 692
Flags: W
HStem: 42 21G<1.48509 62 471.182 676> 800 20G<78.2683 110.242 479.653 706>
VStem: 2 126<42 103.6>
LayerCount: 2
Fore
SplineSet
-17 738 m 1
 109 820 l 1
 128 514 l 1
 148 474 l 1
 500 820 l 1
 706 820 l 1
 286 411 l 1
 676 42 l 1
 493 42 l 1
 205 306 l 1
 158 306 l 1
 128 42 l 1
 2 0 l 1
 -17 738 l 1
EndSplineSet
EndChar

StartChar: L
Encoding: 76 76 45
Width: 575
Flags: W
HStem: 0 21G<384.854 506.619> 800 20G<49.4851 88.1818>
VStem: 31 174<142 289.724> 50 126<606.276 754>
LayerCount: 2
Fore
SplineSet
31 82 m 1xe0
 50 820 l 1
 176 754 l 1xd0
 205 142 l 1
 547 126 l 1
 499 0 l 1
 31 82 l 1xe0
EndSplineSet
EndChar

StartChar: M
Encoding: 77 77 46
Width: 818
Flags: W
HStem: 0 56G<76.4841 121.957 315.767 431.71 609.972 747.506> 800 20G<94.5159 233.6 726.615 766.494>
VStem: 76 108<78.9537 179.741> 611 136<0 136.182>
LayerCount: 2
Fore
SplineSet
76 35 m 1
 95 820 l 1
 226 820 l 1
 454 220 l 1
 662 738 l 1
 767 790 l 1
 747 0 l 1
 611 0 l 1
 589 428 l 1
 424 0 l 1
 323 0 l 1
 157 459 l 1
 184 82 l 1
 76 35 l 1
EndSplineSet
EndChar

StartChar: N
Encoding: 78 78 47
Width: 690
Flags: W
HStem: 38 21G<529.983 628>
VStem: 52 107<72 134.16>
LayerCount: 2
Fore
SplineSet
52 72 m 1
 102 738 l 1
 186 743 l 1
 510 283 l 1
 482 738 l 1
 589 738 l 1
 628 42 l 1
 544 38 l 1
 209 516 l 1
 159 72 l 1
 52 72 l 1
EndSplineSet
EndChar

StartChar: O
Encoding: 79 79 48
Width: 790
Flags: W
HStem: 64 146<281.589 516.083> 610 146<281.521 512.881>
VStem: 32 105<324.951 495.322> 652 106<326.835 492.77>
LayerCount: 2
Fore
SplineSet
32 410 m 0
 32 592 203 755 396 756 c 0
 589 756 758 590 758 410 c 0
 758 229 590 63 396 64 c 0
 201 64 32 229 32 410 c 0
137 410 m 0
 137 289 246 209 396 210 c 0
 545 210 653 288 652 410 c 0
 652 532 546 610 396 610 c 0
 246 610 137 532 137 410 c 0
EndSplineSet
EndChar

StartChar: P
Encoding: 80 80 49
Width: 676
Flags: W
HStem: 0 21G<30 157.242> 337 163<324.419 445.364> 656 164<368 456.652>
VStem: 30 126<0 112.737> 481 166<531.182 632.589>
LayerCount: 2
Fore
SplineSet
30 0 m 1
 31 820 l 1
 379 820 l 2
 559 820 647 694 647 578 c 0
 647 451 507 337 368 337 c 1
 175 306 l 1
 156 0 l 1
 30 0 l 1
175 499 m 2
 368 500 l 2
 437 500 492 535 481 589 c 1
 481 643 437 656 368 656 c 1
 377 656 195 659 195 668 c 0
 195 678 186 499 175 499 c 2
EndSplineSet
EndChar

StartChar: Q
Encoding: 81 81 50
Width: 796
Flags: W
HStem: 16 128<304.129 480.111> 58 21G<648.5 671.5> 676 62<304.928 477.67>
VStem: 89 56<297.229 499.873> 619 126<289.66 495.538>
LayerCount: 2
Fore
SplineSet
89 369 m 0xb8
 89 563 228 737 410 738 c 0
 591 738 746 566 745 374 c 1
 739 293 707 216 657 155 c 1
 634 155 708 80 708 103 c 0
 708 127 637 58 660 58 c 0x78
 683 58 612 129 612 106 c 1
 558 55 490 23 416 16 c 1
 233 16 89 176 89 369 c 0xb8
145 410 m 0
 145 253 245 143 383 144 c 0xb8
 424 144 461 154 493 171 c 1
 420 245 l 1
 523 344 l 1
 591 275 l 1
 609 313 619 360 619 410 c 0
 619 568 522 675 384 676 c 0
 245 676 145 568 145 410 c 0
EndSplineSet
EndChar

StartChar: R
Encoding: 82 82 51
Width: 683
Flags: W
HStem: 0 21G<34.5115 116.29 525 596.765> 680 140<309.096 445.656>
VStem: 17 144<478 680> 467 137<534.466 588 589 661.645>
LayerCount: 2
Fore
SplineSet
17 737 m 1
 336 820 l 1
 497 820 603 707 604 603 c 1
 625 518 537 424 440 380 c 1
 494 365 667 38 647 34 c 1
 525 0 l 1
 525 0 419 229 251 308 c 1
 167 338 l 2
 165 338 163 31 161 31 c 2
 35 0 l 1
 17 737 l 1
161 478 m 1
 170 479 337 482 337 491 c 1
 418 500 479 546 467 588 c 1
 467 588 478 589 467 589 c 1
 468 653 461 679 354 680 c 1
 161 680 l 1
 161 478 l 1
EndSplineSet
EndChar

StartChar: S
Encoding: 83 83 52
Width: 606
Flags: W
HStem: 621 177<206.844 345.797>
VStem: 71 74<512.168 556.291> 397 188<476.586 574.314>
LayerCount: 2
Fore
SplineSet
11 303 m 1
 22 296 169 290 169 302 c 1
 169 218 186 166 279 185 c 0
 372 202 442 258 475 290 c 1
 475 382 72 367 71 583 c 1
 59 709 171 804 297 798 c 0
 424 788 584 753 585 484 c 0
 585 464 431 444 397 468 c 1
 397 580 388 598 271 621 c 1
 189 621 180 562 145 531 c 1
 145 442 575 417 541 224 c 1
 541 109 441 -14 272 9 c 1
 136 9 11 85 11 303 c 1
EndSplineSet
EndChar

StartChar: T
Encoding: 84 84 53
Width: 620
Flags: W
HStem: 612 192<13 257> 694 110<402 570>
VStem: 257 145<66 612>
LayerCount: 2
Fore
SplineSet
13 612 m 1xa0
 13 804 l 1xa0
 570 804 l 1
 570 694 l 1
 402 694 l 1x60
 402 66 l 1
 257 66 l 1
 257 612 l 1
 13 612 l 1xa0
EndSplineSet
EndChar

StartChar: U
Encoding: 85 85 54
Width: 701
Flags: W
HStem: 800 20G<101.333 148.815 609.5 662.815>
VStem: 22 126<648.294 766> 536 126<648.294 772>
LayerCount: 2
Fore
SplineSet
22 766 m 1
 148 820 l 1
 165 403 l 1
 165 285 235 161 336 161 c 1
 438 147 512 219 520 337 c 1
 530 337 536 758 536 772 c 1
 662 820 l 1
 679 403 l 1
 679 236 540 28 382 29 c 1
 224 10 74 152 52 319 c 1
 31 319 22 746 22 766 c 1
EndSplineSet
EndChar

StartChar: V
Encoding: 86 86 55
Width: 714
Flags: W
HStem: 0 21G<300.732 417.22> 800 20G<-30 136.206 579.865 746>
LayerCount: 2
Fore
SplineSet
-30 820 m 1
 128 820 l 1
 359 257 l 1
 588 820 l 1
 746 820 l 1
 409 0 l 1
 309 0 l 1
 -30 820 l 1
EndSplineSet
EndChar

StartChar: W
Encoding: 87 87 56
Width: 964
Flags: W
HStem: 0 21G<276.556 332.86> 800 20G<392.973 438.818 793.678 851.727>
LayerCount: 2
Fore
SplineSet
30 738 m 1
 137 738 l 1
 220 369 l 1
 401 820 l 1
 505 765 l 1
 679 369 l 1
 799 820 l 1
 944 765 l 1
 784 82 l 1
 711 82 l 1
 516 486 l 1
 325 0 l 1
 216 45 l 1
 30 738 l 1
EndSplineSet
EndChar

StartChar: X
Encoding: 88 88 57
Width: 665
Flags: W
HStem: 21 21G<36 142.939 490.176 638.308> 800 20G<32.1667 194.113 505.28 607.095>
LayerCount: 2
Fore
SplineSet
-57 82 m 1
 236 464 l 1
 3 796 l 1
 178 820 l 1
 377 573 l 1
 519 780 l 1
 704 738 l 1
 429 382 l 1
 678 26 l 1
 506 0 l 1
 290 273 l 1
 129 42 l 1
 -57 82 l 1
EndSplineSet
EndChar

StartChar: Y
Encoding: 89 89 58
Width: 695
Flags: W
HStem: 32 21G<298 360> 750 20G<23.75 142.051 524.622 653.875>
VStem: 298 155<79.7419 192.727>
LayerCount: 2
Fore
SplineSet
-37 738 m 1
 125 770 l 1
 310 553 l 1
 542 820 l 1
 721 788 l 1
 431 430 l 1
 453 82 l 1
 298 32 l 1
 298 346 l 1
 -37 738 l 1
EndSplineSet
EndChar

StartChar: Z
Encoding: 90 90 59
Width: 634
Flags: W
HStem: 66 60<264 569> 694 60<103 375>
LayerCount: 2
Fore
SplineSet
-34 66 m 1
 375 694 l 1
 103 694 l 1
 62 754 l 1
 673 754 l 1
 264 126 l 1
 569 126 l 1
 610 66 l 1
 -34 66 l 1
EndSplineSet
EndChar

StartChar: bracketleft
Encoding: 91 91 60
Width: 310
Flags: W
HStem: 794 20G<224.571 276.664>
VStem: 11 145<541.875 689>
LayerCount: 2
Fore
SplineSet
11 702 m 1
 271 814 l 1
 303 701 l 1
 156 689 l 1
 139 183 l 1
 286 95 l 1
 303 -19 l 1
 43 -30 l 1
 11 702 l 1
EndSplineSet
EndChar

StartChar: backslash
Encoding: 92 92 61
Width: 365
Flags: W
LayerCount: 2
Fore
SplineSet
-15 824 m 1
 157 726 l 1
 381 -13 l 1
 207 85 l 1
 -15 824 l 1
EndSplineSet
EndChar

StartChar: bracketright
Encoding: 93 93 62
Width: 310
Flags: W
HStem: 70 125<9 187> 589 125<9 187>
VStem: 9 277<70 195 589 714> 187 99<195 589>
LayerCount: 2
Fore
SplineSet
9 70 m 1xe0
 9 195 l 1xe0
 187 195 l 1
 187 589 l 1xd0
 9 589 l 1
 9 714 l 1
 286 714 l 1
 286 70 l 1
 9 70 l 1xe0
EndSplineSet
EndChar

StartChar: asciicircum
Encoding: 94 94 63
Width: 454
Flags: W
HStem: 770 20G<189.402 271.667>
LayerCount: 2
Fore
SplineSet
5 422 m 1
 200 790 l 1
 286 766 l 1
 453 399 l 1
 324 410 l 1
 219 592 l 1
 104 399 l 1
 5 422 l 1
EndSplineSet
EndChar

StartChar: underscore
Encoding: 95 95 64
Width: 473
Flags: W
HStem: -122 126<98 508> -113 126<-34 376>
LayerCount: 2
Fore
SplineSet
-86 -113 m 1x40
 -34 13 l 1x40
 560 4 l 1
 508 -122 l 1x80
 -86 -113 l 1x40
EndSplineSet
EndChar

StartChar: grave
Encoding: 96 96 65
Width: 250
Flags: W
HStem: 519 303
VStem: -37 325
LayerCount: 2
Fore
SplineSet
-37 822 m 1
 131 800 l 1
 288 519 l 1
 120 532 l 1
 -37 822 l 1
EndSplineSet
EndChar

StartChar: a
Encoding: 97 97 66
Width: 606
Flags: W
HStem: 35 88<271.388 400.362> 466 142<207.454 383.386>
VStem: 22 167<226.421 423.379>
LayerCount: 2
Fore
SplineSet
22 321 m 0
 22 469 156 607 304 608 c 0
 363 608 418 594 460 569 c 1
 460 576 455 629 448 629 c 2
 574 629 l 2
 567 629 581 38 574 38 c 2
 448 38 l 2
 441 38 455 84 448 84 c 0
 399 53 363 35 304 35 c 0
 154 35 22 175 22 321 c 0
189 335 m 0
 189 229 248 122 333 123 c 0
 419 123 459 187 460 291 c 1
 460 301 l 1
 456 404 392 466 299 466 c 0
 198 466 189 457 189 335 c 0
EndSplineSet
EndChar

StartChar: b
Encoding: 98 98 67
Width: 642
Flags: W
HStem: 85 123<176 309> 521 99<237.723 396.449> 794 20G<62 188>
VStem: 62 126<575.203 814> 453 149<259.409 427.825>
LayerCount: 2
Fore
SplineSet
50 14 m 2
 57 14 62 807 62 814 c 0
 62 821 188 807 188 814 c 2
 188 568 l 1
 230 607 281 613 332 620 c 1
 475 627 603 467 602 321 c 0
 602 174 476 15 332 23 c 1
 281 30 225 54 176 85 c 0
 170 85 164 33 164 26 c 0
 164 19 50 14 50 14 c 2
147 380 m 0
 147 274 223 207 309 208 c 0
 395 208 454 241 453 348 c 1
 460 455 409 520 326 521 c 0
 254 521 147 487 147 380 c 0
EndSplineSet
EndChar

StartChar: c
Encoding: 99 99 68
Width: 554
Flags: W
HStem: 13 149<208.096 350.291> 516 93<222.23 370.422>
VStem: 18 126<231.876 421.494>
LayerCount: 2
Fore
SplineSet
18 311 m 0
 18 464 144 609 288 609 c 2
 289 609 l 1
 371 608 478 548 519 476 c 1
 519 476 569 377 557 377 c 0
 542 377 383 389 383 404 c 0
 383 420 378 463 393 463 c 1
 382 500 348 515 294 516 c 0
 208 516 144 437 144 331 c 0
 144 225 199 162 279 162 c 0
 322 162 361 183 384 213 c 1
 384 206 409 231 416 231 c 0
 421 231 570 233 570 233 c 1
 513 138 l 2
 474 74 371 14 288 13 c 0
 144 13 18 156 18 311 c 0
EndSplineSet
EndChar

StartChar: d
Encoding: 100 100 69
Width: 606
Flags: W
HStem: 23 100<282.741 407.756> 794 20G<460 586>
VStem: 35 155<257.395 450.933> 460 126<26 73 557.181 814> 470 116<192.385 381.344>
LayerCount: 2
Fore
SplineSet
35 334 m 0xf0
 29 488 151 626 293 620 c 1
 345 613 400 589 449 557 c 0
 456 557 460 807 460 814 c 0
 460 821 586 807 586 814 c 2
 586 26 l 2
 586 33 460 19 460 26 c 2
 460 73 l 1
 418 49 369 16 316 23 c 1
 173 30 41 180 35 334 c 0xf0
190 381 m 0
 190 274 248 122 334 123 c 0
 419 123 469 187 470 292 c 1
 470 301 l 1xe8
 464 404 399 466 299 466 c 0
 199 466 190 487 190 381 c 0
EndSplineSet
EndChar

StartChar: e
Encoding: 101 101 70
Width: 601
Flags: W
HStem: 50 84<262.363 427.484> 509 108<220.856 380.839>
VStem: 452 106<390 434.071>
LayerCount: 2
Fore
SplineSet
62 319 m 0
 62 510 166 617 288 617 c 1
 491 608 558 473 558 256 c 0
 558 247 165 239 177 250 c 1
 198 178 278 134 348 134 c 1
 399 125 439 149 430 173 c 1
 415 173 530 188 530 203 c 1
 530 176 496 50 321 50 c 0
 212 50 62 132 62 319 c 0
153 390 m 1
 452 390 l 1
 451 439 390 508 298 509 c 0
 225 509 172 464 153 390 c 1
EndSplineSet
EndChar

StartChar: f
Encoding: 102 102 71
Width: 381
Flags: W
HStem: 45 21G<127.361 255> 384 140<245.391 356> 638 113<256.325 331>
VStem: 101 126<498 607.894> 128 127<58 257.818>
LayerCount: 2
Fore
SplineSet
21 439 m 1xe8
 101 484 l 1
 102 641 127 741 331 751 c 1
 331 638 l 1
 266 636 227 628 227 498 c 1xf0
 227 526 343 532 360 524 c 1
 356 384 l 1
 351 386 244 386 244 372 c 2
 255 58 l 1
 128 45 l 1
 118 358 l 1
 38 313 l 1
 21 439 l 1xe8
EndSplineSet
EndChar

StartChar: g
Encoding: 103 103 72
Width: 602
Flags: W
HStem: 41 99<230.618 350.898> 532 106<263.732 388.117>
VStem: 20 149<230.75 414.205>
LayerCount: 2
Fore
SplineSet
20 340 m 0
 20 487 149 644 290 638 c 1
 338 631 383 628 424 594 c 1
 424 620 l 2
 424 613 560 627 560 620 c 0
 560 613 564 78 572 78 c 1
 579 -238 250 -199 116 -143 c 1
 116 -136 111 4 104 4 c 1
 240 -67 432 -66 433 90 c 1
 390 52 341 48 290 41 c 1
 146 34 20 193 20 340 c 0
169 318 m 0
 165 206 218 139 296 140 c 0
 353 140 399 198 414 290 c 0
 414 305 424 423 439 423 c 1
 431 496 387 538 324 532 c 1
 238 534 169 412 169 318 c 0
EndSplineSet
EndChar

StartChar: h
Encoding: 104 104 73
Width: 584
Flags: W
HStem: 29 37G<185 185 525.947 528> 471 212<243.042 357.534>
VStem: 437 88<372 442.523>
LayerCount: 2
Fore
SplineSet
39 762 m 1
 165 734 l 1
 148 560 l 1
 184 582 223 683 264 683 c 0
 391 684 526 556 525 424 c 1
 526 45 l 1
 530 49 416 52 416 52 c 2
 425 52 437 372 437 372 c 1
 437 456 392 471 320 471 c 0
 248 471 185 422 185 338 c 2
 185 29 l 2
 185 34 55 39 50 39 c 0
 44 39 39 762 39 762 c 1
EndSplineSet
EndChar

StartChar: i
Encoding: 105 105 74
Width: 218
Flags: W
HStem: 0 21G<54.3939 103.462> 626 20G<114.538 163.606> 713 144<42.6387 175.363>
VStem: 37 144<718.596 851.404> 37 126<415 594> 55 126<52 231>
LayerCount: 2
Fore
SplineSet
37 594 m 1xe8
 163 646 l 1xe8
 181 52 l 1
 55 0 l 1xe4
 37 594 l 1xe8
37 722 m 0xf0
 37 727 41 857 46 857 c 0
 50 857 181 853 181 848 c 0
 181 843 177 713 173 713 c 0
 168 713 37 717 37 722 c 0xf0
EndSplineSet
EndChar

StartChar: j
Encoding: 106 106 75
Width: 266
Flags: W
HStem: -100 135<7.50781 100.319>
VStem: 144 117<78.2625 158>
LayerCount: 2
Fore
SplineSet
1 -100 m 1
 1 -95 5 35 9 35 c 0
 79 37 144 48 144 166 c 1
 144 166 142 653 137 653 c 2
 263 653 l 2
 258 653 266 158 261 158 c 1
 256 1 205 -95 1 -100 c 1
126 703 m 1
 248 635 l 1
 262 635 271 772 271 787 c 1
 144 829 l 1
 126 703 l 1
EndSplineSet
EndChar

StartChar: k
Encoding: 107 107 76
Width: 552
Flags: W
HStem: 0 21G<332.904 536> 601 20G<317.587 488.333>
VStem: -7 144<713.565 824> -7 109<86 229>
LayerCount: 2
Fore
SplineSet
-7 86 m 1xd0
 -7 824 l 1
 137 842 l 1xe0
 160 420 l 1
 335 621 l 1
 542 594 l 1
 249 299 l 1
 536 20 l 1
 355 0 l 1
 102 229 l 1
 102 86 l 1
 -7 86 l 1xd0
EndSplineSet
EndChar

StartChar: l
Encoding: 108 108 77
Width: 242
Flags: W
HStem: 0 142<179.482 262>
VStem: -14 144<192.888 874>
LayerCount: 2
Fore
SplineSet
-16 874 m 1
 130 874 l 1
 130 289 l 2
 130 160 197 144 266 142 c 1
 262 0 l 1
 42 10 -13 118 -14 289 c 2
 -16 874 l 1
EndSplineSet
EndChar

StartChar: m
Encoding: 109 109 78
Width: 875
Flags: W
HStem: 20 4G<224 224 498.5 504 711.923 761.017> 468 155<266.249 368.688> 517 101<502.397 613.943>
VStem: 647 131<215.333 456.571>
LayerCount: 2
Fore
SplineSet
78 623 m 1xd0
 204 594 l 1
 186 568 l 1
 213 584 244 623 276 623 c 0xd0
 332 630 384 601 419 554 c 1
 452 601 504 628 562 618 c 1
 675 619 779 473 778 353 c 1
 760 -1 l 1
 635 51 l 1
 647 405 l 1
 647 480 613 516 557 517 c 0xb0
 505 520 476 481 482 407 c 1
 490 407 496 52 501 45 c 1
 507 52 395 52 395 52 c 2
 414 52 421 399 421 382 c 1
 421 456 387 468 331 468 c 0
 275 468 224 428 224 353 c 2
 224 24 l 2
 224 34 95 38 87 38 c 0
 81 38 78 623 78 623 c 1xd0
EndSplineSet
EndChar

StartChar: n
Encoding: 110 110 79
Width: 585
Flags: W
HStem: 49 21G<37 161 401.872 402> 468 126<229.713 338.366> 627 20G<46.5 59.5>
LayerCount: 2
Fore
SplineSet
35 49 m 1
 39 51 43 647 50 647 c 0
 69 647 204 640 204 623 c 2
 204 557 l 1
 240 580 262 594 303 594 c 0
 430 595 547 492 546 360 c 1
 546 360 544 38 537 38 c 0
 529 38 402 34 402 24 c 2
 400 336 l 2
 400 419 336 468 264 468 c 0
 193 468 147 471 147 388 c 1
 161 52 l 1
 35 49 l 1
EndSplineSet
EndChar

StartChar: o
Encoding: 111 111 80
Width: 606
Flags: W
HStem: 35 141<202.805 398.061> 466 142<202.728 400.545>
VStem: 20 108<246.936 396.036> 477 108<247.072 396.069>
LayerCount: 2
Fore
SplineSet
20 322 m 0
 20 469 155 607 303 608 c 0
 453 608 586 468 585 322 c 0
 585 174 454 34 303 35 c 0
 153 35 20 174 20 322 c 0
128 322 m 0
 128 229 201 175 303 176 c 0
 406 176 478 229 477 322 c 0
 477 413 406 466 303 466 c 0
 201 466 128 413 128 322 c 0
EndSplineSet
EndChar

StartChar: p
Encoding: 112 112 81
Width: 606
Flags: W
HStem: -144 21G<45 171> 23 153<219.145 410.696> 519 101<199.77 324.861>
VStem: 45 126<-144 60.4584> 418 155<192.737 388.268>
LayerCount: 2
Fore
SplineSet
33 414 m 1
 31 531 140 627 292 620 c 0
 433 613 567 464 573 310 c 0
 580 156 458 16 315 23 c 1
 263 30 213 35 171 73 c 1
 171 -144 l 2
 171 -137 45 -152 45 -144 c 0
 45 -137 40 414 33 414 c 1
136 347 m 1
 136 347 136 338 137 338 c 0
 143 237 210 176 308 176 c 0
 409 175 418 162 418 269 c 0
 418 375 358 519 273 519 c 0
 186 518 136 454 136 347 c 1
EndSplineSet
EndChar

StartChar: q
Encoding: 113 113 82
Width: 606
Flags: W
HStem: 23 73<246.798 384.042>
VStem: 23 167<216.085 425.891>
LayerCount: 2
Fore
SplineSet
23 322 m 0
 23 469 151 627 293 620 c 0
 444 613 563 507 575 390 c 1
 581 390 586 -144 586 -144 c 2
 586 -137 455 -132 449 -132 c 0
 441 -132 437 73 437 73 c 1
 394 35 345 30 293 23 c 1
 150 16 23 175 23 322 c 0
190 269 m 0
 190 162 231 95 316 96 c 0
 402 96 459 186 460 290 c 1
 453 290 446 295 443 295 c 0
 428 401 360 478 274 494 c 0
 188 509 190 375 190 269 c 0
EndSplineSet
EndChar

StartChar: r
Encoding: 114 114 83
Width: 464
Flags: W
HStem: 0 21G<98.5882 149.188> 628 20G<39.397 166>
VStem: 22 144<185.167 283.167>
LayerCount: 2
Fore
SplineSet
22 51 m 1
 40 648 l 1
 166 641 l 1
 166 644 173 594 180 594 c 0
 242 630 313 646 382 646 c 1
 438 631 l 1
 438 631 434 508 428 508 c 0
 419 508 355 499 355 498 c 1
 232 498 167 420 166 303 c 1
 148 0 l 1
 22 51 l 1
EndSplineSet
EndChar

StartChar: s
Encoding: 115 115 84
Width: 516
Flags: W
HStem: 473 158<174.036 312.237>
VStem: 57 88<401.622 445.985>
LayerCount: 2
Fore
SplineSet
8 195 m 1
 20 186 153 189 153 193 c 1
 153 169 164 148 239 160 c 0
 314 169 361 205 386 226 c 1
 386 287 58 255 57 451 c 1
 43 554 151 633 256 631 c 0
 362 626 495 539 495 430 c 0
 495 415 344 405 325 419 c 1
 325 453 318 458 235 473 c 1
 172 473 165 439 145 419 c 1
 145 358 490 363 469 183 c 1
 469 86 369 -12 235 3 c 1
 121 4 8 97 8 195 c 1
EndSplineSet
EndChar

StartChar: t
Encoding: 116 116 85
Width: 327
Flags: W
HStem: 756 20G<86.5887 216>
VStem: 65 152<325.5 466>
LayerCount: 2
Fore
SplineSet
-14 490 m 1
 -7 616 l 1
 72 635 l 1
 89 776 l 1
 216 757 l 1
 227 616 l 1
 330 602 l 1
 320 476 l 1
 217 466 l 1
 217 452 221 279 225 281 c 1
 225 159 277 130 341 128 c 1
 324 120 311 -1 311 28 c 1
 107 38 74 148 73 304 c 1
 65 476 l 1
 -14 490 l 1
EndSplineSet
EndChar

StartChar: u
Encoding: 117 117 86
Width: 566
Flags: W
HStem: 24 122<248.872 357.308> 625 20G<72 177.884 409 499.884>
VStem: 51 126<486.625 621> 373 126<486.625 617>
LayerCount: 2
Fore
SplineSet
39 243 m 1
 46 243 51 611 51 621 c 1
 177 645 l 1
 193 283 l 1
 193 217 236 146 310 146 c 1
 384 129 419 164 399 229 c 1
 380 229 373 599 373 617 c 1
 499 645 l 1
 515 283 l 1
 515 163 397 23 272 24 c 1
 148 15 32 123 39 243 c 1
EndSplineSet
EndChar

StartChar: v
Encoding: 118 118 87
Width: 592
Flags: W
HStem: 0 21G<288.863 340.822> 625 20G<-1.22222 97.4286 477.326 528.961>
LayerCount: 2
Fore
SplineSet
-9 645 m 1
 140 617 l 1
 309 277 l 1
 487 645 l 1
 594 594 l 1
 332 0 l 1
 222 51 l 1
 -9 645 l 1
EndSplineSet
EndChar

StartChar: w
Encoding: 119 119 88
Width: 844
Flags: W
HStem: 51 21G<218 306.291 599.281 687.132> 628 20G<339.125 418.714 679.921 787.429>
LayerCount: 2
Fore
SplineSet
22 597 m 1
 141 597 l 1
 202 319 l 1
 348 648 l 1
 447 620 l 1
 586 319 l 1
 686 648 l 1
 828 620 l 1
 682 51 l 1
 610 51 l 1
 446 357 l 1
 298 0 l 1
 194 26 l 1
 22 597 l 1
EndSplineSet
EndChar

StartChar: x
Encoding: 120 120 89
Width: 589
Flags: W
HStem: 0 21G<421.477 617> 598 20G<472.491 679>
LayerCount: 2
Fore
SplineSet
-87 70 m 1
 202 335 l 1
 41 678 l 1
 224 678 l 1
 295 447 l 1
 496 618 l 5
 679 618 l 5
 387 335 l 1
 617 0 l 1
 434 0 l 1
 295 222 l 1
 96 70 l 1
 -87 70 l 1
EndSplineSet
EndChar

StartChar: y
Encoding: 121 121 90
Width: 538
Flags: W
HStem: -166 21G<53.7397 179> 625 20G<383.338 508.385>
LayerCount: 2
Fore
SplineSet
-29 568 m 1
 124 602 l 1
 236 320 l 1
 393 645 l 1
 543 619 l 1
 315 19 307 -37 51 -166 c 1
 71 -20 l 1
 194 43 191 68 144 176 c 2
 -29 568 l 1
EndSplineSet
EndChar

StartChar: z
Encoding: 122 122 91
Width: 580
Flags: W
HStem: 38 88<260 534> 519 89<82 323>
LayerCount: 2
Fore
SplineSet
-52 38 m 1
 323 519 l 1
 82 519 l 1
 57 608 l 1
 635 608 l 1
 260 126 l 1
 534 126 l 1
 559 38 l 1
 -52 38 l 1
EndSplineSet
EndChar

StartChar: braceleft
Encoding: 123 123 92
Width: 324
Flags: W
HStem: 240 55<35 54.1605> 609 21G<290 292.5>
VStem: 105 126<425.25 618.515> 105 116<47.0944 162.098>
LayerCount: 2
Fore
SplineSet
35 240 m 1xd0
 8 240 35 295 35 295 c 1
 8 295 55 314 55 314 c 1
 59 343 104 380 105 442 c 1
 79 526 121 683 234 719 c 1
 234 724 290 726 290 726 c 1
 290 609 l 1
 295 609 234 611 234 615 c 0
 218 652 205 620 231 552 c 1xe0
 230 460 187 367 192 369 c 1
 180 366 220 285 221 165 c 0
 222 88 231 47 246 44 c 0
 249 43 313 38 313 32 c 0
 313 3 312 -127 323 -127 c 1
 258 -138 l 1
 121 -135 106 9 105 96 c 1
 77 161 89 193 35 240 c 1xd0
EndSplineSet
EndChar

StartChar: bar
Encoding: 124 124 93
Width: 221
Flags: W
VStem: 40 126<417.562 738> 56 126<-105 215.438>
LayerCount: 2
Fore
SplineSet
40 738 m 1x80
 166 824 l 1x80
 182 -105 l 1
 56 -191 l 1x40
 40 738 l 1x80
EndSplineSet
EndChar

StartChar: braceright
Encoding: 125 125 94
Width: 324
Flags: W
HStem: -77 117<49 103.729> 549 139<2 72.6332>
VStem: 114 119<41.2769 150 151 258.278>
LayerCount: 2
Fore
SplineSet
2 549 m 1
 2 688 l 1
 14 688 76 691 76 720 c 1
 199 723 220 575 224 499 c 1
 223 440 249 401 301 366 c 1
 301 394 302 339 290 339 c 1
 269 333 l 1
 264 305 236 265 233 163 c 0
 232 70 222 -77 98 -77 c 1
 35 -86 l 2
 31 -86 35 40 35 40 c 1
 98 40 l 2
 107 40 113 66 114 150 c 1
 110 150 114 151 114 151 c 1
 113 238 157 302 164 317 c 1
 159 317 164 317 164 318 c 0
 160 320 164 320 164 320 c 1
 155 335 118 410 114 491 c 0
 110 491 114 492 114 492 c 1
 109 565 103 598 89 593 c 1
 89 557 30 549 2 549 c 1
EndSplineSet
EndChar

StartChar: asciitilde
Encoding: 126 126 95
Width: 566
Flags: W
HStem: 451 135<118.5 252.516> 451 126<184.27 250.892>
VStem: 438 126<478.921 578>
LayerCount: 2
Fore
SplineSet
3 410 m 1xa0
 4 464 58 584 179 586 c 0xa0
 186 586 198 577 203 577 c 0x60
 313 575 372 484 397 484 c 1
 408 476 l 1
 434 476 438 484 438 515 c 2
 438 578 l 1
 564 578 l 1
 564 515 l 2
 564 450 507 348 408 350 c 0
 308 350 250 451 219 451 c 0
 192 451 181 426 169 398 c 1
 158 398 151 345 145 345 c 0
 139 345 10 337 10 337 c 1
 3 410 l 1xa0
EndSplineSet
EndChar

StartChar: dieresis
Encoding: 168 168 97
Width: 299
Flags: W
HStem: 646 127
VStem: 12 276
LayerCount: 2
Fore
SplineSet
12 764 m 2
 12 764 120 768 120 773 c 2
 120 773 124 655 129 655 c 2
 129 655 22 651 22 646 c 2
 22 646 18 764 12 764 c 2
171 764 m 2
 171 764 279 768 279 773 c 2
 279 773 283 655 288 655 c 2
 288 655 180 651 180 646 c 2
 180 646 176 764 171 764 c 2
EndSplineSet
EndChar

StartChar: cedilla
Encoding: 184 184 98
Width: 305
Flags: W
HStem: -177 269
VStem: 20 261
LayerCount: 2
Fore
SplineSet
20 -81 m 1
 74 -136 178 -116 181 -99 c 0
 199 -52 81 38 99 92 c 1
 99 92 235 88 240 88 c 0
 249 88 230 42 220 42 c 0
 192 42 283 -1 281 -77 c 0
 281 -136 268 -164 149 -177 c 0
 114 -179 90 -183 23 -163 c 1
 20 -81 l 1
EndSplineSet
EndChar

StartChar: AE
Encoding: 198 198 99
Width: 1238
Flags: W
HStem: 0 21G<605.447 1093> 16 126<968.25 1093> 322 126<978.312 1054> 662 126<1034 1140> 784 20G<694.637 1140>
LayerCount: 2
Fore
SplineSet
179 66 m 1xa0
 709 804 l 1xa8
 1140 788 l 1
 1174 662 l 1
 834 645 l 1
 800 465 l 1
 1054 448 l 1
 1089 322 l 1
 836 306 l 1
 777 126 l 1
 1117 142 l 1
 1093 16 l 1x70
 609 0 l 1
 582 152 l 1
 353 235 l 1
 312 82 l 1
 179 66 l 1xa0
457 311 m 1
 638 342 l 1
 625 552 l 1
 457 311 l 1
EndSplineSet
EndChar

StartChar: dotlessi
Encoding: 305 305 100
Width: 218
Flags: W
HStem: 0 21G<114.588 164.606> 625 20G<55.3939 105.412>
VStem: 38 126<51 231> 56 126<414 594>
LayerCount: 2
Fore
SplineSet
38 51 m 1xe0
 56 645 l 1
 182 594 l 1xd0
 164 0 l 1
 38 51 l 1xe0
EndSplineSet
EndChar

StartChar: circumflex
Encoding: 710 710 101
Width: 319
Flags: W
HStem: 545 216
LayerCount: 2
Fore
SplineSet
-44 556 m 1
 114 761 l 1
 175 761 l 1
 341 554 l 1
 201 570 l 1
 182 606 l 1
 134 545 l 1
 -44 556 l 1
EndSplineSet
EndChar

StartChar: caron
Encoding: 711 711 102
Width: 318
Flags: W
HStem: 561 225 757 20G<200.674 363>
LayerCount: 2
Fore
SplineSet
-59 786 m 1x80
 118 775 l 1
 175 734 l 1
 223 777 l 1x40
 363 761 l 1
 168 561 l 1
 107 561 l 1
 -59 786 l 1x80
EndSplineSet
EndChar

StartChar: uni02C9
Encoding: 713 713 103
Width: 320
Flags: W
HStem: 581 126<158.5 275> 593 126<46 162.5>
VStem: 5 311
LayerCount: 2
Fore
SplineSet
5 593 m 1x60
 46 719 l 1x60
 316 707 l 1
 275 581 l 1xa0
 5 593 l 1x60
EndSplineSet
EndChar

StartChar: uni02CA
Encoding: 714 714 104
Width: 236
Flags: W
HStem: 584 222
VStem: -43 320
LayerCount: 2
Fore
SplineSet
-43 601 m 1
 139 806 l 1
 277 792 l 1
 98 584 l 1
 -43 601 l 1
EndSplineSet
EndChar

StartChar: uni02CB
Encoding: 715 715 105
Width: 236
Flags: W
HStem: 584 222
VStem: -40 320
LayerCount: 2
Fore
SplineSet
-40 792 m 1
 98 806 l 1
 280 601 l 1
 139 584 l 1
 -40 792 l 1
EndSplineSet
EndChar

StartChar: uni02CD
Encoding: 717 717 106
Width: 320
Flags: W
HStem: -126 126<158.5 275> -114 126<46 162.5>
VStem: 5 311
LayerCount: 2
Fore
SplineSet
5 -114 m 1x60
 46 12 l 1x60
 316 0 l 1
 275 -126 l 1xa0
 5 -114 l 1x60
EndSplineSet
EndChar

StartChar: breve
Encoding: 728 728 107
Width: 339
Flags: W
HStem: 653 18<161.856 167.67>
VStem: 36 121<656.194 720>
LayerCount: 2
Fore
SplineSet
36 723 m 1
 157 720 l 1
 156 675 162 653 168 653 c 1
 155 653 148 661 147 671 c 1
 168 671 196 688 196 723 c 1
 196 723 305 713 314 713 c 1
 323 646 230 576 168 578 c 0
 111 578 36 655 36 723 c 1
EndSplineSet
EndChar

StartChar: dotaccent
Encoding: 729 729 108
Width: 294
Flags: W
HStem: 646 127
VStem: 84 126
LayerCount: 2
Fore
SplineSet
84 764 m 2
 84 764 201 768 201 773 c 2
 201 773 205 655 210 655 c 2
 210 655 94 651 94 646 c 2
 94 646 90 764 84 764 c 2
EndSplineSet
EndChar

StartChar: ring
Encoding: 730 730 109
Width: 271
Flags: W
HStem: 527 83<101.011 172.054> 706 84<100.908 161.919>
VStem: 2 89<619.037 697.304>
LayerCount: 2
Fore
SplineSet
2 658 m 0
 2 724 72 788 134 790 c 0
 144 790 151 784 151 775 c 1
 207 767 264 698 252 643 c 0
 243 590 202 525 134 527 c 0
 70 527 2 594 2 658 c 0
91 658 m 0
 91 634 114 610 136 610 c 0
 159 610 182 634 182 658 c 0
 182 682 159 706 136 706 c 0
 114 706 91 682 91 658 c 0
EndSplineSet
EndChar

StartChar: ogonek
Encoding: 731 731 110
Width: 247
Flags: W
VStem: 18 226
LayerCount: 2
Fore
SplineSet
18 -56 m 0
 16 -9 0 60 96 118 c 1
 96 126 199 51 199 51 c 1
 199 51 90 11 126 -39 c 1
 167 -68 169 -36 179 -10 c 1
 179 -12 242 -123 244 -123 c 0
 247 -123 194 -151 194 -151 c 2
 93 -208 19 -114 18 -56 c 0
EndSplineSet
EndChar

StartChar: tilde
Encoding: 732 732 111
Width: 375
Flags: W
HStem: 709 82<99.7498 160.615> 742 20G<356.5 364>
LayerCount: 2
Fore
SplineSet
12 592 m 0x80
 8 592 23 633 12 633 c 1
 8 702 58 790 128 791 c 0x80
 190 792 206 687 239 669 c 0
 265 655 295 745 314 745 c 1
 314 745 351 762 362 762 c 1x40
 366 676 321 574 243 574 c 0
 168 574 174 708 146 709 c 0
 74 708 71 610 48 610 c 1
 48 610 23 592 12 592 c 0x80
EndSplineSet
EndChar

StartChar: hungarumlaut
Encoding: 733 733 112
Width: 249
Flags: W
HStem: 552 226
LayerCount: 2
Fore
SplineSet
-146 572 m 1
 35 778 l 1
 177 761 l 1
 -2 552 l 1
 -146 572 l 1
70 572 m 1
 251 778 l 1
 393 761 l 1
 215 552 l 1
 70 572 l 1
EndSplineSet
EndChar
